<svg width="26" height="26" viewBox="0 0 26 26" fill="none" xmlns="http://www.w3.org/2000/svg">
<g clip-path="url(#clip0_633_15)">
<path d="M9 3H5C3.89543 3 3 3.89543 3 5V21C3 22.1046 3.89543 23 5 23H9C10.1046 23 11 22.1046 11 21V5C11 3.89543 10.1046 3 9 3Z" stroke="#2760B5" stroke-width="2.16667" stroke-linecap="round" stroke-linejoin="round"/>
<path d="M21 3H17C15.8954 3 15 3.89543 15 5V9C15 10.1046 15.8954 11 17 11H21C22.1046 11 23 10.1046 23 9V5C23 3.89543 22.1046 3 21 3Z" stroke="#2760B5" stroke-width="2.16667" stroke-linecap="round" stroke-linejoin="round"/>
<path d="M21 15H17C15.8954 15 15 15.8954 15 17V21C15 22.1046 15.8954 23 17 23H21C22.1046 23 23 22.1046 23 21V17C23 15.8954 22.1046 15 21 15Z" stroke="#2760B5" stroke-width="2.16667" stroke-linecap="round" stroke-linejoin="round"/>
</g>
<defs>
<clipPath id="clip0_633_15">
<rect width="24" height="24" fill="white" transform="translate(1 1)"/>
</clipPath>
</defs>
</svg>
