<svg width="17" height="22" viewBox="0 0 17 22" fill="none" xmlns="http://www.w3.org/2000/svg">
<path fill-rule="evenodd" clip-rule="evenodd" d="M16.5833 20.6296C16.5833 21.2941 16.0644 21.8333 15.4225 21.8333C14.7807 21.8333 14.2618 21.2941 14.2618 20.6296C14.2618 17.311 11.6583 14.6111 8.45825 14.6111C5.25816 14.6111 2.65468 17.311 2.65468 20.6296C2.65468 21.2941 2.13584 21.8333 1.49397 21.8333C0.852091 21.8333 0.333252 21.2941 0.333252 20.6296C0.333252 15.9833 3.97906 12.2037 8.45825 12.2037C12.9374 12.2037 16.5833 15.9833 16.5833 20.6296ZM8.45825 2.57406C9.73852 2.57406 10.7797 3.65379 10.7797 4.98147C10.7797 6.30916 9.73852 7.38888 8.45825 7.38888C7.17798 7.38888 6.13682 6.30916 6.13682 4.98147C6.13682 3.65379 7.17798 2.57406 8.45825 2.57406ZM8.45825 9.79629C11.0188 9.79629 13.1011 7.63684 13.1011 4.98147C13.1011 2.3261 11.0188 0.166656 8.45825 0.166656C5.89772 0.166656 3.81539 2.3261 3.81539 4.98147C3.81539 7.63684 5.89772 9.79629 8.45825 9.79629Z" fill="#2760B5"/>
</svg>
