<svg width="26" height="26" viewBox="0 0 26 26" fill="none" xmlns="http://www.w3.org/2000/svg">
<path fill-rule="evenodd" clip-rule="evenodd" d="M9.01816 5.05157L9.04795 4.92157C9.10482 4.67998 9.19799 4.32465 9.39028 3.97473C9.58636 3.61832 9.89024 3.25702 10.3669 3.01923C10.8419 2.78252 11.4372 2.69423 12.1734 2.79173C12.9859 2.90007 14.6179 3.16873 16.0598 3.90215C17.5099 4.6399 18.8684 5.90902 18.8684 8.02261C18.8684 9.11461 18.4459 10.2862 18.0364 11.05C17.8397 11.4172 17.6063 11.7682 17.3723 11.9573C17.3187 12.0006 17.2423 12.0548 17.1475 12.0927C16.8875 12.9472 16.3699 13.7006 15.6655 14.2497C14.9611 14.7989 14.1042 15.1171 13.2121 15.1609C12.32 15.2046 11.4361 14.9718 10.6814 14.4941C9.92659 14.0165 9.33778 13.3174 8.99541 12.4924L8.98241 12.4946L8.79011 12.2612L9.20828 11.9166L8.79011 12.2612L8.78957 12.2601L8.78849 12.259L8.78578 12.2552L8.77657 12.2444C8.73022 12.1867 8.6856 12.1276 8.64278 12.0672C8.52582 11.905 8.41558 11.738 8.31236 11.5667C8.05778 11.1453 7.75066 10.5451 7.55403 9.84477C7.35795 9.1444 7.26803 8.32323 7.47386 7.47607C7.67428 6.65165 8.14715 5.84023 9.00353 5.11548L9.01816 5.05157ZM9.92816 11.8972C10.1631 12.5727 10.6142 13.152 11.2117 13.5453C11.8091 13.9385 12.5196 14.1238 13.233 14.0724C13.9464 14.021 14.623 13.7358 15.1579 13.261C15.6929 12.7862 16.0563 12.1482 16.192 11.4459L16.2532 11.4665C16.251 11.4359 16.25 11.4052 16.2499 11.3744C16.2499 10.478 16.1254 9.85236 16.0094 9.46236C15.9868 9.38645 15.9617 9.3113 15.9342 9.23702L15.9119 9.23811H15.8903C15.4852 9.24685 15.0803 9.21601 14.6813 9.14603C13.7512 8.98894 12.4919 8.59678 11.0088 7.6884C10.9763 7.76098 10.9438 7.84278 10.9113 7.93377C10.8051 8.2344 10.7179 8.59136 10.6426 8.96836C10.576 9.3004 10.5213 9.63461 10.4693 9.94769L10.4492 10.0712C10.3934 10.407 10.3377 10.7369 10.2727 10.9758C10.1589 11.3907 10.043 11.6854 9.92816 11.8966V11.8972ZM9.16982 10.888C8.92517 10.4681 8.73306 10.0196 8.59782 9.55282C8.43586 8.9754 8.37628 8.35032 8.52686 7.73228C8.67311 7.13102 9.02682 6.4989 9.75428 5.89982C9.88536 5.81098 9.94495 5.69182 9.9612 5.65986V5.65932C9.98964 5.60075 10.0125 5.53963 10.0294 5.47677C10.0468 5.41502 10.0657 5.33052 10.0836 5.25469L10.1026 5.16965C10.154 4.95136 10.2207 4.71357 10.3398 4.49636C10.4557 4.28619 10.6144 4.10636 10.8506 3.98882C11.0879 3.87019 11.4551 3.78894 12.0304 3.86586C12.8174 3.9704 14.2978 4.22119 15.5685 4.86794C16.8306 5.50982 17.785 6.48157 17.785 8.02261C17.785 8.73219 17.5467 9.53927 17.2596 10.1757C17.2054 9.76082 17.1274 9.42173 17.0473 9.15307C16.9914 8.96105 16.9217 8.77332 16.8387 8.59136C16.8075 8.52392 16.7731 8.45795 16.7358 8.39365L16.7266 8.37902L16.7234 8.37361L16.7217 8.3709L16.7207 8.36928L16.2657 8.66178L16.7207 8.36928L16.5202 8.05836L16.1617 8.1304L16.1541 8.13202L16.1015 8.13907C16.0209 8.14805 15.94 8.15347 15.8589 8.15532C15.5249 8.16177 15.1911 8.13565 14.8622 8.07732C13.9885 7.92998 12.7047 7.52861 11.1453 6.49023L10.7661 6.23728L10.4525 6.56769C10.1941 6.83961 10.0186 7.21065 9.89024 7.57194C9.75916 7.94298 9.66003 8.35736 9.58041 8.75494C9.51439 9.09329 9.45444 9.43278 9.40057 9.77327L9.37999 9.89461C9.32203 10.2472 9.2749 10.5164 9.22724 10.6909C9.20945 10.757 9.19031 10.8227 9.16982 10.888ZM16.6887 11.1166L16.6909 11.1155L16.6887 11.1166ZM16.6909 11.1155L16.6887 11.1166L16.6903 11.1155H16.6909Z" fill="#2760B5"/>
<path fill-rule="evenodd" clip-rule="evenodd" d="M9.70342 15.6298C9.58858 15.4012 9.44721 15.119 9.20833 15.1737C6.28117 15.8399 3.25 17.7634 3.25 19.8087V22.75H22.75V19.8087C22.75 18.1978 20.8693 16.6622 18.6404 15.7571L18.6377 15.7517C18.6352 15.7468 18.6327 15.7419 18.6301 15.737L18.6122 15.7457C18.0202 15.5074 17.4038 15.3124 16.7917 15.1737C16.5192 15.1114 16.2375 15.4862 16.1146 15.7208H9.75C9.73483 15.6926 9.71967 15.6612 9.70342 15.6298ZM17.01 16.3448C17.2467 16.4103 17.4823 16.484 17.7147 16.5652C17.7212 16.7505 17.7071 16.9693 17.6768 17.1925C17.6459 17.4235 17.5966 17.6518 17.5294 17.875H16.7917C16.6911 17.875 16.5925 17.9031 16.507 17.956C16.4215 18.0089 16.3524 18.0846 16.3074 18.1745L15.7658 19.2579C15.7281 19.333 15.7084 19.4159 15.7083 19.5V20.5833C15.7083 20.727 15.7654 20.8648 15.867 20.9663C15.9686 21.0679 16.1063 21.125 16.25 21.125H17.3333V20.0417H16.7917V19.6278L17.1264 18.9583H18.6236L18.9583 19.6278V20.0417H18.4167V21.125H19.5C19.6437 21.125 19.7814 21.0679 19.883 20.9663C19.9846 20.8648 20.0417 20.727 20.0417 20.5833V19.5C20.0416 19.4159 20.0219 19.333 19.9843 19.2579L19.4426 18.1745C19.3976 18.0846 19.3285 18.0089 19.243 17.956C19.1575 17.9031 19.0589 17.875 18.9583 17.875H18.6517C18.7187 17.5883 18.7636 17.297 18.7861 17.0034C19.3142 17.2532 19.805 17.5397 20.2302 17.8495C21.2712 18.6089 21.6667 19.3196 21.6667 19.8087V21.6667H4.33333V19.8087C4.33333 19.3196 4.72875 18.6089 5.76983 17.8495C6.29308 17.4677 6.91763 17.1221 7.58713 16.8361C7.60572 17.2677 7.67499 17.6957 7.7935 18.1112L7.79783 18.1263C7.47401 18.3312 7.23299 18.6439 7.11736 19.0092C7.00172 19.3745 7.01891 19.769 7.16588 20.1229C7.31286 20.4767 7.58016 20.7673 7.92058 20.9432C8.261 21.1191 8.65263 21.1691 9.02632 21.0843C9.4 20.9995 9.73168 20.7853 9.96279 20.4797C10.1939 20.174 10.3096 19.7965 10.2893 19.4139C10.2691 19.0312 10.1143 18.668 9.8523 18.3884C9.59028 18.1088 9.23787 17.9308 8.85733 17.8858C8.78812 17.6592 8.7374 17.4273 8.70567 17.1925C8.67551 16.9825 8.66301 16.7703 8.66829 16.5582C8.66986 16.5177 8.67257 16.4772 8.67642 16.4369C8.74142 16.4168 8.80642 16.3973 8.87142 16.3789L9.09621 16.8047H16.7684L17.01 16.3453V16.3448ZM8.66667 20.0503C8.95808 20.0503 9.20833 19.812 9.20833 19.5005C9.20833 19.1896 8.95808 18.9507 8.66667 18.9507C8.37525 18.9507 8.125 19.1891 8.125 19.5005C8.125 19.8114 8.37525 20.0503 8.66667 20.0503Z" fill="#2760B5"/>
</svg>
