<svg width="26" height="26" viewBox="0 0 26 26" fill="none" xmlns="http://www.w3.org/2000/svg">
<path d="M12.1666 4.56999C12.4546 3.81041 13.5445 3.81041 13.8334 4.56999L15.6963 9.73043C15.7613 9.89854 15.8757 10.043 16.0245 10.1447C16.1733 10.2464 16.3494 10.3006 16.5297 10.3001H21.1078C21.9538 10.3001 22.3228 11.3531 21.6577 11.8688L18.3998 14.8C18.2539 14.9122 18.1472 15.0677 18.0952 15.2443C18.0431 15.4208 18.0483 15.6093 18.11 15.7828L19.2998 20.8253C19.5896 21.6353 18.6518 22.331 17.9426 21.8324L13.5175 19.0245C13.3659 18.918 13.1852 18.8608 13 18.8608C12.8148 18.8608 12.634 18.918 12.4825 19.0245L8.05733 21.8324C7.34905 22.331 6.41038 21.6344 6.70017 20.8253L7.88993 15.7828C7.95165 15.6093 7.95685 15.4208 7.90479 15.2443C7.85273 15.0677 7.74608 14.9122 7.60014 14.8L4.34224 11.8688C3.67626 11.3531 4.04705 10.3001 4.89122 10.3001H9.46939C9.64964 10.3007 9.82583 10.2466 9.97465 10.1448C10.1235 10.0431 10.2379 9.89861 10.3028 9.73043L12.1657 4.56999H12.1666Z" stroke="#2760B5" stroke-width="1.79995" stroke-linecap="round" stroke-linejoin="round"/>
</svg>
