<svg width="26" height="26" viewBox="0 0 26 26" fill="none" xmlns="http://www.w3.org/2000/svg">
<path d="M18.4167 9.75V7.58333C18.4167 7.0087 18.1884 6.4576 17.7821 6.05127C17.3757 5.64494 16.8246 5.41667 16.25 5.41667H5.41667C4.84203 5.41667 4.29093 5.64494 3.8846 6.05127C3.47827 6.4576 3.25 7.0087 3.25 7.58333V14.0833C3.25 14.658 3.47827 15.2091 3.8846 15.6154C4.29093 16.0217 4.84203 16.25 5.41667 16.25H7.58333M9.75 20.5833H20.5833C21.158 20.5833 21.7091 20.3551 22.1154 19.9487C22.5217 19.5424 22.75 18.9913 22.75 18.4167V11.9167C22.75 11.342 22.5217 10.7909 22.1154 10.3846C21.7091 9.97827 21.158 9.75 20.5833 9.75H9.75C9.17536 9.75 8.62426 9.97827 8.21794 10.3846C7.81161 10.7909 7.58333 11.342 7.58333 11.9167V18.4167C7.58333 18.9913 7.81161 19.5424 8.21794 19.9487C8.62426 20.3551 9.17536 20.5833 9.75 20.5833ZM17.3333 15.1667C17.3333 15.7413 17.1051 16.2924 16.6987 16.6987C16.2924 17.1051 15.7413 17.3333 15.1667 17.3333C14.592 17.3333 14.0409 17.1051 13.6346 16.6987C13.2283 16.2924 13 15.7413 13 15.1667C13 14.592 13.2283 14.0409 13.6346 13.6346C14.0409 13.2283 14.592 13 15.1667 13C15.7413 13 16.2924 13.2283 16.6987 13.6346C17.1051 14.0409 17.3333 14.592 17.3333 15.1667V15.1667Z" stroke="#2760B5" stroke-width="2.16667" stroke-linecap="round" stroke-linejoin="round"/>
</svg>
