<svg width="26" height="26" viewBox="0 0 26 26" fill="none" xmlns="http://www.w3.org/2000/svg">
<path d="M9 16V4.6C9 4.44087 9.06321 4.28826 9.17574 4.17574C9.28826 4.06321 9.44087 4 9.6 4H21.4C21.5591 4 21.7117 4.06321 21.8243 4.17574C21.9368 4.28826 22 4.44087 22 4.6V18C22 19.0609 21.5786 20.0783 20.8284 20.8284C20.0783 21.5786 19.0609 22 18 22M13 12H18H13ZM13 8H18H13Z" stroke="#2760B5" stroke-width="1.5" stroke-linecap="round" stroke-linejoin="round"/>
<path d="M6 16H13.4C13.731 16 14.003 16.267 14.03 16.597C14.153 18.115 14.78 22 18 22H7C6.20435 22 5.44129 21.6839 4.87868 21.1213C4.31607 20.5587 4 19.7956 4 19V18C4 17.4696 4.21071 16.9609 4.58579 16.5858C4.96086 16.2107 5.46957 16 6 16V16Z" stroke="#2760B5" stroke-width="1.5" stroke-linecap="round" stroke-linejoin="round"/>
</svg>
