<svg width="26" height="26" viewBox="0 0 26 26" fill="none" xmlns="http://www.w3.org/2000/svg">
<g opacity="0.2">
<path d="M5 22.4V3.6C5 3.44087 5.06321 3.28826 5.17574 3.17574C5.28826 3.06321 5.44087 3 5.6 3H17.252C17.4111 3.00014 17.5636 3.06345 17.676 3.176L20.824 6.324C20.88 6.3799 20.9243 6.44632 20.9545 6.51943C20.9847 6.59254 21.0002 6.6709 21 6.75V22.4C21 22.4788 20.9845 22.5568 20.9543 22.6296C20.9242 22.7024 20.88 22.7685 20.8243 22.8243C20.7685 22.88 20.7024 22.9242 20.6296 22.9543C20.5568 22.9845 20.4788 23 20.4 23H5.6C5.52121 23 5.44319 22.9845 5.37039 22.9543C5.29759 22.9242 5.23145 22.88 5.17574 22.8243C5.12002 22.7685 5.07583 22.7024 5.04567 22.6296C5.01552 22.5568 5 22.4788 5 22.4V22.4Z" stroke="#191818" stroke-width="1.5" stroke-linecap="round" stroke-linejoin="round"/>
<path d="M17 6.4V3.354C17.0001 3.28407 17.021 3.21575 17.0599 3.15765C17.0988 3.09955 17.154 3.05428 17.2186 3.02754C17.2832 3.0008 17.3543 2.99379 17.4229 3.00739C17.4915 3.021 17.5545 3.05461 17.604 3.104L20.896 6.39599C20.9459 6.44531 20.9799 6.50837 20.9938 6.57712C21.0077 6.64587 21.0008 6.7172 20.974 6.782C20.9471 6.84681 20.9016 6.90215 20.8432 6.94098C20.7848 6.97981 20.7161 7.00035 20.646 6.99999H17.6C17.4409 6.99999 17.2883 6.93678 17.1757 6.82426C17.0632 6.71174 17 6.55912 17 6.4Z" fill="#191818" stroke="#191818" stroke-width="1.5" stroke-linecap="round" stroke-linejoin="round"/>
<path d="M9 15H13M9 11H17H9ZM9 19H17H9Z" stroke="#191818" stroke-width="1.5" stroke-linecap="round" stroke-linejoin="round"/>
</g>
</svg>
