<svg width="26" height="26" viewBox="0 0 26 26" fill="none" xmlns="http://www.w3.org/2000/svg">
<path d="M13 2.16666C7.02646 2.16666 2.16663 7.02649 2.16663 13C2.16663 18.9735 7.02646 23.8333 13 23.8333C18.9735 23.8333 23.8333 18.9735 23.8333 13C23.8333 7.02649 18.9735 2.16666 13 2.16666ZM4.33329 13C4.33329 11.0002 5.02013 9.16282 6.16196 7.69491L18.305 19.838C16.7906 21.023 14.9229 21.6668 13 21.6667C8.22138 21.6667 4.33329 17.7786 4.33329 13ZM19.838 18.3051L7.69488 6.16199C9.20943 4.97714 11.077 4.33338 13 4.33332C17.7785 4.33332 21.6666 8.22141 21.6666 13C21.6661 14.9229 21.0224 16.7903 19.838 18.3051Z" fill="#FF6767"/>
</svg>
