<svg width="248" height="48" viewBox="0 0 248 48" fill="none" xmlns="http://www.w3.org/2000/svg">
<path d="M2 30.8095C12.2861 30.8572 13.4363 36.3595 20.7779 37.9195C28.1196 39.4796 31.1845 19.3302 39.5595 18.6613C47.9345 17.9924 50.8871 44.4387 58.341 43.0596C65.795 41.6806 66.3544 29.7403 76.1835 27.7954C86.0127 25.8504 85.174 45.4452 94.026 45.995C102.878 46.5447 102.73 2 111.868 2C121.007 2 121.931 32.277 131.589 31.77C141.247 31.263 141.439 14.4053 151.809 14.4053C162.178 14.4053 165.437 29.3748 174.553 30.7619C183.67 32.149 181.38 47.9617 190.751 43.0596C200.122 38.1576 198.884 19.5138 207.654 18.6613C216.425 17.8088 219.324 29.7475 226.883 31.77C234.441 33.7925 238.062 43.119 245.5 43.119" stroke="#2760B5" stroke-width="4" stroke-linecap="round"/>
</svg>
